<svg width="563" height="441" viewBox="0 0 563 441" fill="none" xmlns="http://www.w3.org/2000/svg"><path fill-rule="evenodd" clip-rule="evenodd" d="M225.827 60.932c8.416-14.576 29.454-14.576 37.869 0l171.865 297.68c8.416 14.575-2.103 32.795-18.934 32.795H72.897c-16.832 0-27.35-18.22-18.935-32.795l171.865-297.68zm18.935 21.022L81.635 364.498h326.253L244.762 81.954z" fill="#C967CC"/><path fill-rule="evenodd" clip-rule="evenodd" d="M419.54 384.68L306.268 188.487l23.304-13.454 113.272 196.192-23.304 13.455z" fill="#FEBF56"/><path fill-rule="evenodd" clip-rule="evenodd" d="M333.521 119.763c8.389-14.533 29.363-14.533 37.753 0l137.942 238.946c8.39 14.532-2.097 32.698-18.876 32.698H214.455c-16.779 0-27.266-18.166-18.877-32.698l137.943-238.946zm18.876 20.96l-129.23 223.855h258.461L352.397 140.723z" fill="#E46047"/><path fill-rule="evenodd" clip-rule="evenodd" d="M192.626 369.343c.01-3.637.943-7.367 2.972-10.886l102.998-178.564c7.982-10.715 23.509-11.648 32.805-2.8L223.376 364.371h215.917c3.069 13.252-6.849 27.019-21.529 27.036H214.713c-12.844-.015-22.042-10.554-22.087-22.064z" fill="#689FF1"/></svg>